# xmcd
#
# Track frame offsets:
# 150
# 2508
# 30006
# 63054
# 112676
# 155471
# 194090
# 234782
#
# Disc length: 3813 seconds
#
# Revision: 0
# Processed by: cddbd v1.5.2PL0 Copyright (c) Steve Scherf et al.
# Submitted via: Audion 3.0.2 (http://www.panic.com/audion/)
#
DISCID=480ee308
DTITLE=Larry Miller - Spoiled Rotten America 1
DYEAR=1900
DGENRE=
TTITLE0=HarperAudio presents Spoiled Rotten America
TTITLE1=Introduction
TTITLE2=Chapter 1
TTITLE3=There's one...
TTITLE4=It's not that I... 
TTITLE5=The fact that....
TTITLE6=Which brings us.... 
TTITLE7=e
EXTD=
EXTT0=
EXTT1=
EXTT2=
EXTT3=
EXTT4=
EXTT5=
EXTT6=
EXTT7=
PLAYORDER=
